<?xml version="1.0" encoding="UTF-8"?>
<svg width="38px" height="38px" viewBox="0 0 38 38" version="1.1" xmlns="http://www.w3.org/2000/svg" xmlns:xlink="http://www.w3.org/1999/xlink">
    <!-- Generator: Sketch 56.3 (81716) - https://sketch.com -->
    <title>Facebook-color</title>
    <desc>Created with Sketch.</desc>
    <g id="Page-1" stroke="none" stroke-width="1" fill="none" fill-rule="evenodd">
        <g id="Group-7" transform="translate(-160.000000, -249.000000)" fill="#4460A0">
            <path d="M180.297031,287 L162.097308,287 C160.938658,287 160,286.06076 160,284.902561 L160,251.097292 C160,249.938798 160.938805,249 162.097308,249 L195.902839,249 C197.061048,249 198,249.938798 198,251.097292 L198,284.902561 C198,286.060907 197.0609,287 195.902839,287 L186.21945,287 L186.21945,272.284306 L191.158829,272.284306 L191.898431,266.549339 L186.21945,266.549339 L186.21945,262.887924 C186.21945,261.227519 186.680522,260.096008 189.061521,260.096008 L192.098371,260.094681 L192.098371,254.96528 C191.57316,254.89539 189.770454,254.739243 187.673145,254.739243 C183.29466,254.739243 180.297031,257.411875 180.297031,262.319957 L180.297031,266.549339 L175.344971,266.549339 L175.344971,272.284306 L180.297031,272.284306 L180.297031,287 L180.297031,287 Z" id="Facebook"></path>
        </g>
    </g>
</svg>