<?xml version="1.0" encoding="UTF-8"?>
<svg width="35px" height="38px" viewBox="0 0 35 38" version="1.1" xmlns="http://www.w3.org/2000/svg" xmlns:xlink="http://www.w3.org/1999/xlink">
    <!-- Generator: Sketch 56.3 (81716) - https://sketch.com -->
    <title>Google-color</title>
    <desc>Created with Sketch.</desc>
    <g id="Page-1" stroke="none" stroke-width="1" fill="none" fill-rule="evenodd">
        <g id="Group-7" transform="translate(-154.000000, -425.000000)">
            <g id="Google" transform="translate(154.000000, 425.000000)">
                <path d="M7.31818182,19 C7.31818182,17.7932889 7.50670455,16.6364 7.84318182,15.5512889 L1.95363636,10.7700444 C0.805795455,13.2476444 0.159090909,16.0393778 0.159090909,19 C0.159090909,21.9580889 0.805,24.7481333 1.95125,27.2240444 L7.83761364,22.4335111 C7.50431818,21.3534667 7.31818182,20.2008 7.31818182,19" id="Fill-1" fill="#FBBC05"></path>
                <path d="M17.6590909,8.02222222 C20.125,8.02222222 22.3522727,8.95111111 24.1022727,10.4711111 L29.1931818,5.06666667 C26.0909091,2.19555556 22.1136364,0.422222222 17.6590909,0.422222222 C10.7434091,0.422222222 4.79977273,4.62671111 1.95363636,10.7700444 L7.84318182,15.5512889 C9.20022727,11.172 13.0685227,8.02222222 17.6590909,8.02222222" id="Fill-2" fill="#EA4335"></path>
                <path d="M17.6590909,29.9777778 C13.0685227,29.9777778 9.20022727,26.828 7.84318182,22.4487111 L1.95363636,27.2291111 C4.79977273,33.3732889 10.7434091,37.5777778 17.6590909,37.5777778 C21.9275,37.5777778 26.0026136,35.9665778 29.0611364,32.9476889 L23.4706818,28.3530667 C21.8932955,29.4094667 19.9070455,29.9777778 17.6590909,29.9777778" id="Fill-3" fill="#34A853"></path>
                <path d="M34.3636364,19 C34.3636364,17.9022222 34.2045455,16.72 33.9659091,15.6222222 L17.6590909,15.6222222 L17.6590909,22.8 L27.0454545,22.8 C26.5761364,25.2472 25.2986364,27.1286222 23.4706818,28.3530667 L29.0611364,32.9476889 C32.2739773,29.7776444 34.3636364,25.0555111 34.3636364,19" id="Fill-4" fill="#4285F4"></path>
            </g>
        </g>
    </g>
</svg>