<svg xmlns="http://www.w3.org/2000/svg" xmlns:xlink="http://www.w3.org/1999/xlink" viewBox="0 0 375 20">
  <defs>
    <style>
      .cls-1, .cls-3 {
        fill: none;
      }

      .cls-2 {
        clip-path: url(#clip-path);
      }

      .cls-3 {
        stroke: rgba(0,0,0,0.47);
        stroke-width: 2px;
      }

      .cls-4 {
        clip-path: url(#clip-path-2);
      }

      .cls-5 {
        fill: rgba(0,0,0,0.58);
      }

      .cls-6 {
        clip-path: url(#clip-path-3);
      }

      .cls-7 {
        fill-rule: evenodd;
      }

      .cls-8 {
        stroke: #000;
        stroke-linecap: round;
        stroke-linejoin: round;
      }
    </style>
    <clipPath id="clip-path">
      <path id="Path_728" data-name="Path 728" class="cls-1" d="M0-9.5A2.5,2.5,0,0,1,2.5-12h19A2.5,2.5,0,0,1,24-9.5V-3A2.5,2.5,0,0,1,21.5-.5H2.5A2.5,2.5,0,0,1,0-3Z" transform="translate(0 12)"/>
    </clipPath>
    <clipPath id="clip-path-2">
      <path id="Path_730" data-name="Path 730" class="cls-1" d="M25-8.372A2.251,2.251,0,0,1,26.5-6.25,2.251,2.251,0,0,1,25-4.128Z" transform="translate(0 12)"/>
    </clipPath>
    <clipPath id="clip-path-3">
      <path id="Path_732" data-name="Path 732" class="cls-1" d="M2-9a1,1,0,0,1,.992-1H21.008a.994.994,0,0,1,.7.294A.994.994,0,0,1,22-9v5.5a1,1,0,0,1-.992,1H2.992a.994.994,0,0,1-.7-.294A.994.994,0,0,1,2-3.5Z" transform="translate(0 12)"/>
    </clipPath>
  </defs>
  <g id="Group_278" data-name="Group 278" transform="translate(-1064 189)">
    <rect id="Background" class="cls-1" width="375" height="20" transform="translate(1064 -189)"/>
    <g id="Battery_Outline" data-name="Battery Outline" class="cls-2" transform="translate(1407 -185)">
      <g id="Group_277" data-name="Group 277">
        <path id="Path_727" data-name="Path 727" class="cls-3" d="M0,2.5A2.5,2.5,0,0,1,2.5,0h19A2.5,2.5,0,0,1,24,2.5V9a2.5,2.5,0,0,1-2.5,2.5H2.5A2.5,2.5,0,0,1,0,9Z"/>
      </g>
    </g>
    <g id="Cap" class="cls-4" transform="translate(1407 -185)">
      <path id="Path_729" data-name="Path 729" class="cls-5" d="M20,.872H31.5V-13.372H20Z" transform="translate(0 12)"/>
    </g>
    <g id="Battery_Fill" data-name="Battery Fill" class="cls-6" transform="translate(1407 -185)">
      <path id="Path_731" data-name="Path 731" d="M-3,2.5H27V-15H-3Z" transform="translate(0 12)"/>
    </g>
    <path id="_100_" data-name="100%" d="M2.965,0H4.02V-8.455H2.971L.721-6.838v1.113l2.15-1.559h.094ZM9.381.2c1.9,0,2.988-1.605,2.988-4.412S11.262-8.654,9.381-8.654s-3,1.635-3,4.424C6.381-1.418,7.477.2,9.381.2Zm0-.92c-1.248,0-1.939-1.248-1.939-3.51,0-2.232.7-3.5,1.939-3.5s1.928,1.254,1.928,3.5C11.309-1.963,10.629-.721,9.381-.721ZM16.939.2c1.9,0,2.988-1.605,2.988-4.412S18.82-8.654,16.939-8.654s-3,1.635-3,4.424C13.939-1.418,15.035.2,16.939.2Zm0-.92C15.691-.721,15-1.969,15-4.23c0-2.232.7-3.5,1.939-3.5s1.928,1.254,1.928,3.5C18.867-1.963,18.188-.721,16.939-.721Zm7.846-5.848a1.846,1.846,0,0,0-1.8-2.033,1.854,1.854,0,0,0-1.8,2.033,1.856,1.856,0,0,0,1.8,2.039A1.852,1.852,0,0,0,24.785-6.568Zm-1.8,1.289c-.521,0-.867-.51-.867-1.289s.34-1.283.867-1.283.861.492.861,1.283C23.848-5.795,23.5-5.279,22.986-5.279ZM22.893,0l2.9-3.967,3.281-4.488H28.008L25.043-4.406,21.814,0Zm6.785-1.893a1.846,1.846,0,0,0-1.8-2.033,1.854,1.854,0,0,0-1.8,2.033,1.856,1.856,0,0,0,1.8,2.039A1.852,1.852,0,0,0,29.678-1.893ZM27.879-.6c-.521,0-.867-.51-.867-1.289s.34-1.283.867-1.283.861.492.861,1.283C28.74-1.119,28.395-.6,27.879-.6Z" transform="translate(1373.854 -175)"/>
    <path id="Bluetooth" class="cls-7" d="M293.5-12l4,3.5L294.75-6l2.75,2.5-4,3.5V-4.751L291.25-2.5l-.75-.75L293.25-6,290.5-8.75l.75-.75,2.25,2.25Zm1,2.37V-7L296-8.4Zm0,4.63v2.75L296-3.541Z" transform="translate(1070 -173.5)"/>
    <path id="_9:41_AM" data-name="9:41 AM" d="M3.756.205c2.115,0,3.352-1.682,3.352-4.547a5.679,5.679,0,0,0-.521-2.572A2.935,2.935,0,0,0,3.809-8.66,2.892,2.892,0,0,0,.744-5.707,2.712,2.712,0,0,0,3.527-2.889,2.361,2.361,0,0,0,5.742-4.172h.1C5.818-2.133,5.063-.961,3.768-.961A1.557,1.557,0,0,1,2.191-2.074H.867A2.78,2.78,0,0,0,3.756.205ZM3.814-4A1.686,1.686,0,0,1,2.051-5.754,1.733,1.733,0,0,1,3.826-7.506,1.742,1.742,0,0,1,5.6-5.725,1.7,1.7,0,0,1,3.814-4ZM9.709-.92a.847.847,0,0,0,.861-.873.847.847,0,0,0-.861-.873.851.851,0,0,0-.861.873A.851.851,0,0,0,9.709-.92Zm0-4.424a.847.847,0,0,0,.861-.873.844.844,0,0,0-.861-.873.847.847,0,0,0-.861.873A.851.851,0,0,0,9.709-5.344ZM16.4,0h1.266V-1.635h1.166V-2.807H17.666V-8.455H15.8c-1.506,2.256-2.766,4.219-3.521,5.6v1.219H16.4ZM13.535-2.859c1-1.729,1.969-3.229,2.807-4.441h.076v4.523H13.535ZM22.324,0h1.313V-8.455H22.33L20.1-6.885v1.342l2.121-1.5h.1ZM34.992,0h1.395L33.334-8.455H31.922L28.869,0h1.348L31-2.244h3.223ZM32.561-6.92h.1l1.225,3.574H31.33ZM46.412,0V-8.455H44.877l-2.7,6.422h-.1L39.393-8.455H37.857V0h1.219V-6.105h.082L41.637-.246h1l2.479-5.859h.082V0Z" transform="translate(1228.264 -174)"/>
    <path id="Bars" class="cls-7" d="M14.25-11h1.5a.75.75,0,0,1,.75.75v8.5a.75.75,0,0,1-.75.75h-1.5a.75.75,0,0,1-.75-.75v-8.5h0A.75.75,0,0,1,14.25-11ZM9.75-9h1.5a.75.75,0,0,1,.75.75v6.5a.75.75,0,0,1-.75.75H9.75A.75.75,0,0,1,9-1.75v-6.5A.75.75,0,0,1,9.75-9ZM5.25-7h1.5a.75.75,0,0,1,.75.75v4.5A.75.75,0,0,1,6.75-1H5.25a.75.75,0,0,1-.75-.75v-4.5A.75.75,0,0,1,5.25-7ZM.75-5.5h1.5A.75.75,0,0,1,3-4.75v3A.75.75,0,0,1,2.25-1H.75A.75.75,0,0,1,0-1.75v-3A.75.75,0,0,1,.75-5.5Z" transform="translate(1070 -173.5)"/>
    <path id="Wifi" class="cls-8" d="M0,2.491a9.75,9.75,0,0,1,13.018,0l-.885.885a8.5,8.5,0,0,0-11.248,0ZM2.392,4.883a6.376,6.376,0,0,1,8.229,0l-.882.882a5.126,5.126,0,0,0-6.465,0ZM4.886,7.377a2.877,2.877,0,0,1,3.246,0L6.509,9Z" transform="translate(1090.991 -184)"/>
  </g>
</svg>
