<?xml version="1.0" encoding="UTF-8"?>
<svg width="12px" height="16px" viewBox="0 0 12 16" version="1.1" xmlns="http://www.w3.org/2000/svg" xmlns:xlink="http://www.w3.org/1999/xlink">
    <!-- Generator: Sketch 52.5 (67469) - http://www.bohemiancoding.com/sketch -->
    <title>Shape</title>
    <desc>Created with Sketch.</desc>
    <g id="new" stroke="none" stroke-width="1" fill="none" fill-rule="evenodd">
        <g id="iPhone-8-Copy-14" transform="translate(-307.000000, -303.000000)" fill="#0076FF">
            <g id="Group-2-Copy" transform="translate(13.000000, 261.000000)">
                <path d="M299.541667,51.5 C300.855833,51.5 301.90875,50.4391667 301.90875,49.125 L301.916667,44.375 C301.916667,43.0608333 300.855833,42 299.541667,42 C298.2275,42 297.166667,43.0608333 297.166667,44.375 L297.166667,49.125 C297.166667,50.4391667 298.2275,51.5 299.541667,51.5 L299.541667,51.5 Z M303.7375,49.125 C303.7375,51.5 301.726667,53.1625 299.541667,53.1625 C297.356667,53.1625 295.345833,51.5 295.345833,49.125 L294,49.125 C294,51.8325 296.153333,54.0570833 298.75,54.445 L298.75,57.0416667 L300.333333,57.0416667 L300.333333,54.445 C302.93,54.065 305.083333,51.8325 305.083333,49.125 L303.7375,49.125 L303.7375,49.125 Z" id="Shape"></path>
            </g>
        </g>
    </g>
</svg>