<?xml version="1.0" encoding="UTF-8"?>
<svg width="72px" height="77px" viewBox="0 0 72 77" version="1.1" xmlns="http://www.w3.org/2000/svg" xmlns:xlink="http://www.w3.org/1999/xlink">
    <!-- Generator: Sketch 52.5 (67469) - http://www.bohemiancoding.com/sketch -->
    <title>noun_notification_1206591</title>
    <desc>Created with Sketch.</desc>
    <g id="Page-1" stroke="none" stroke-width="1" fill="none" fill-rule="evenodd">
        <g id="noun_notification_1206591" fill="#FFFFFF">
            <g id="Group">
                <path d="M3,59.7 C4.5,61.2 6.4,62 8.5,62 L30.8,62 L41.3,62 L63.6,62 C65.7,62 67.6,61.2 69.1,59.7 C72.2,56.6 72.1,51.5 68.8,48.5 L66.3,46.3 C64.7,44.8 63.8,42.8 63.8,40.6 C63.8,40.6 63.8,35 63.8,28.4 C63.8,15.4 53.8,-7.10542736e-15 36.8,-7.10542736e-15 L35.3,-7.10542736e-15 C18.3,-7.10542736e-15 8.3,15.3 8.3,28.4 C8.3,35 8.3,40.6 8.3,40.6 C8.3,42.8 7.4,44.9 5.8,46.3 L3.3,48.5 C0,51.5 -0.1,56.6 3,59.7 Z" id="Path"></path>
                <path d="M36,77 C41.8,77 46.5,72.3 46.5,66.5 L25.5,66.5 C25.5,72.3 30.2,77 36,77 Z" id="Path"></path>
            </g>
        </g>
    </g>
</svg>