<?xml version="1.0" encoding="UTF-8"?>
<svg width="84px" height="70px" viewBox="0 0 84 70" version="1.1" xmlns="http://www.w3.org/2000/svg" xmlns:xlink="http://www.w3.org/1999/xlink">
    <!-- Generator: Sketch 52.5 (67469) - http://www.bohemiancoding.com/sketch -->
    <title>noun_message_2514767</title>
    <desc>Created with Sketch.</desc>
    <g id="Page-1" stroke="none" stroke-width="1" fill="none" fill-rule="evenodd">
        <g id="noun_message_2514767" fill="#FFFFFF" fill-rule="nonzero">
            <path d="M68.9,0.1 L15.1,0.1 C7.1,0.1 0.6,6.6 0.6,14.6 L0.6,30.1 L0.6,37.3 L0.6,69.9 L18.7,51.8 L69,51.8 C77,51.8 83.5,45.3 83.5,37.3 L83.5,14.6 C83.4,6.6 76.9,0.1 68.9,0.1 Z M18.6,32.7 C15.3,32.7 12.6,30 12.6,26.7 C12.6,23.4 15.3,20.7 18.6,20.7 C21.9,20.7 24.6,23.4 24.6,26.7 C24.6,30 21.9,32.7 18.6,32.7 Z M44.8,32 C41.9,33.6 38.2,32.4 36.6,29.5 C35,26.6 36.2,22.9 39.1,21.3 C42,19.7 45.7,20.9 47.3,23.8 C48.9,26.8 47.8,30.4 44.8,32 Z M68.2,32 C65.3,33.6 61.6,32.4 60,29.5 C58.4,26.6 59.6,22.9 62.5,21.3 C65.4,19.7 69.1,20.9 70.7,23.8 C72.3,26.8 71.2,30.4 68.2,32 Z" id="Shape"></path>
        </g>
    </g>
</svg>