<?xml version="1.0" encoding="UTF-8"?>
<svg width="85px" height="96px" viewBox="0 0 85 96" version="1.1" xmlns="http://www.w3.org/2000/svg" xmlns:xlink="http://www.w3.org/1999/xlink">
    <!-- Generator: Sketch 52.5 (67469) - http://www.bohemiancoding.com/sketch -->
    <title>noun_play_339130</title>
    <desc>Created with Sketch.</desc>
    <g id="Page-1" stroke="none" stroke-width="1" fill="none" fill-rule="evenodd">
        <g id="noun_play_339130" fill="#FFFFFF">
            <path d="M81.049,40.652 L80.116,40.118 L13.789,1.825 C13.154,1.326 12.443,0.915 11.685,0.613 C10.707,0.224 9.642,0 8.53,0 C3.82,0 0,3.814 0,8.525 L0,86.948 C0,91.659 3.82,95.47 8.53,95.47 C9.405,95.47 10.255,95.342 11.053,95.094 C12.271,94.712 13.361,94.067 14.27,93.228 L79.311,55.682 C80.18,55.35 80.984,54.886 81.693,54.303 C83.589,52.747 84.804,50.374 84.804,47.726 C84.805,44.782 83.312,42.188 81.049,40.652 Z" id="Path"></path>
        </g>
    </g>
</svg>