<?xml version="1.0" encoding="UTF-8"?>
<svg width="18px" height="18px" viewBox="0 0 18 18" version="1.1" xmlns="http://www.w3.org/2000/svg" xmlns:xlink="http://www.w3.org/1999/xlink">
    <!-- Generator: Sketch 57.1 (83088) - https://sketch.com -->
    <title>pet</title>
    <desc>Created with Sketch.</desc>
    <g id="Icons" stroke="none" stroke-width="1" fill="none" fill-rule="evenodd">
        <g id="The-Icon-of---Other" transform="translate(-1225.000000, -847.000000)" fill="#8857FF" fill-rule="nonzero">
            <g id="ico-/-24-/-other-/-pet" transform="translate(1222.000000, 844.000000)">
                <path d="M7,7 L7,5 C7,3.8954305 7.8954305,3 9,3 C10.1045695,3 11,3.8954305 11,5 L11,7 C11,8.1045695 10.1045695,9 9,9 C7.8954305,9 7,8.1045695 7,7 Z M15,9 C16.1045695,9 17,8.1045695 17,7 L17,5 C17,3.8954305 16.1045695,3 15,3 C13.8954305,3 13,3.8954305 13,5 L13,7 C13,8.1045695 13.8954305,9 15,9 Z M7,12 L7,11 C7,9.8954305 6.1045695,9 5,9 C3.8954305,9 3,9.8954305 3,11 L3,12 C3,13.1045695 3.8954305,14 5,14 C6.1045695,14 7,13.1045695 7,12 Z M19,9 C17.8954305,9 17,9.8954305 17,11 L17,12 C17,13.1045695 17.8954305,14 19,14 C20.1045695,14 21,13.1045695 21,12 L21,11 C21,9.8954305 20.1045695,9 19,9 Z M16.8,15.8 C16.2701085,15.2737234 15.82785,14.6660401 15.49,14 L14.55,12.13 C14.2179119,11.4425638 13.5234356,11.0041513 12.76,11 L11.24,11 C10.481056,11.0004027 9.78773001,11.4303423 9.45,12.11 L8.51,14 C8.17214995,14.6660401 7.72989154,15.2737234 7.2,15.8 L5.59,17.41 C5.2119606,17.7857964 4.99957762,18.2969554 4.99999937,18.83 L4.99999937,19 C4.99999937,20.1045695 5.8954305,21 6.99999937,21 L16.9999994,21 C18.1045695,21 18.9999994,20.1045695 18.9999994,19 L18.9999994,18.83 C19.0004224,18.2969554 18.7880394,17.7857964 18.41,17.41 L16.8,15.8 Z" id="Icon-color"></path>
            </g>
        </g>
    </g>
</svg>