<?xml version="1.0" encoding="UTF-8"?>
<svg width="20px" height="16px" viewBox="0 0 20 16" version="1.1" xmlns="http://www.w3.org/2000/svg" xmlns:xlink="http://www.w3.org/1999/xlink">
    <!-- Generator: Sketch 57.1 (83088) - https://sketch.com -->
    <title>replay</title>
    <desc>Created with Sketch.</desc>
    <g id="Icons" stroke="none" stroke-width="1" fill="none" fill-rule="evenodd">
        <g id="The-Icon-of---Audiovisual" transform="translate(-356.000000, -600.000000)" fill="#8857FF" fill-rule="nonzero">
            <g id="ico-/-24-/-audiovisual-/-replay" transform="translate(366.000000, 608.000000) scale(-1, 1) rotate(-90.000000) translate(-366.000000, -608.000000) translate(354.000000, 596.000000)">
                <path d="M19.9947059,13 C20.1410128,17.4182779 16.6790812,21.1186444 12.2622651,21.2649998 C7.84544905,21.4113553 4.14630685,17.9482779 3.99999973,13.53 C3.99228852,13.3942694 4.03907047,13.2610768 4.12995672,13.16 C4.23150698,13.0540023 4.37311835,12.9958861 4.51982768,13 L5.51949682,13 C5.78065723,12.9991628 5.99843978,13.199589 6.01933138,13.46 C6.26874004,16.7046519 9.05832949,19.1589497 12.3072044,18.9921089 C15.5560793,18.825268 18.0797596,16.0981157 17.995705,12.8449723 C17.9116505,9.59182883 15.2505057,6.9987305 11.9973528,7 L11.9973528,9.36 C11.9993183,9.49558582 11.9450285,9.62592441 11.8474024,9.72 L11.6474686,9.92 C11.5536164,10.0146563 11.4258607,10.0678992 11.2925861,10.0678992 C11.1593114,10.0678992 11.0315558,10.0146563 10.9377035,9.92 L7.39887479,6.39 C7.20715496,6.19218632 7.20715496,5.87781368 7.39887479,5.68 L10.9377035,2.15 C11.0315558,2.05534367 11.1593114,2.00210084 11.2925861,2.00210084 C11.4258607,2.00210084 11.5536164,2.05534367 11.6474686,2.15 L11.8474024,2.35 C11.9450285,2.44407559 11.9993183,2.57441418 11.9973528,2.71 L11.9973528,5 C16.414169,5 19.9947059,8.581722 19.9947059,13 Z" id="Icon-color"></path>
            </g>
        </g>
    </g>
</svg>