<?xml version="1.0" encoding="UTF-8"?>
<svg width="20px" height="20px" viewBox="0 0 20 20" version="1.1" xmlns="http://www.w3.org/2000/svg" xmlns:xlink="http://www.w3.org/1999/xlink">
    <!-- Generator: Sketch 57.1 (83088) - https://sketch.com -->
    <title>time_30_s</title>
    <desc>Created with Sketch.</desc>
    <g id="Icons" stroke="none" stroke-width="1" fill="none" fill-rule="evenodd">
        <g id="The-Icon-of---Actions" transform="translate(-232.000000, -1714.000000)" fill="#8857FF" fill-rule="nonzero">
            <g id="ico-/-24-/-actions-/-time_30_s" transform="translate(230.000000, 1712.000000)">
                <path d="M12,2 C6.4771525,2 2,6.4771525 2,12 C2,17.5228475 6.4771525,22 12,22 C17.5228475,22 22,17.5228475 22,12 C22,9.3478351 20.9464316,6.80429597 19.0710678,4.92893219 C17.195704,3.0535684 14.6521649,2 12,2 Z M12,20 C7.581722,20 4,16.418278 4,12 C4,7.581722 7.581722,4 12,4 C16.418278,4 20,7.581722 20,12 C20,14.1217319 19.1571453,16.1565632 17.6568542,17.6568542 C16.1565632,19.1571453 14.1217319,20 12,20 Z M12.53,6 C12.390519,5.99158266 12.2538797,6.04191682 12.1531908,6.13880614 C12.0525019,6.23569546 11.9969516,6.37029853 12,6.51 L12,17.47 C11.9969516,17.6097015 12.0525019,17.7443045 12.1531908,17.8411939 C12.2538797,17.9380832 12.390519,17.9884173 12.53,17.98 C15.8437085,17.98 18.53,15.2937085 18.53,11.98 C18.53,8.6662915 15.8437085,5.98 12.53,5.98 L12.53,6 Z" id="Icon-color"></path>
            </g>
        </g>
    </g>
</svg>