<?xml version="1.0" encoding="UTF-8"?>
<svg width="18px" height="18px" viewBox="0 0 18 18" version="1.1" xmlns="http://www.w3.org/2000/svg" xmlns:xlink="http://www.w3.org/1999/xlink">
    <!-- Generator: Sketch 57.1 (83088) - https://sketch.com -->
    <title>wallet</title>
    <desc>Created with Sketch.</desc>
    <g id="Icons" stroke="none" stroke-width="1" fill="none" fill-rule="evenodd">
        <g id="The-Icon-of---Payment" transform="translate(-605.000000, -723.000000)" fill="#8857FF" fill-rule="nonzero">
            <g id="ico-/-24-/-payment-/-wallet" transform="translate(602.000000, 720.000000)">
                <path d="M19,7 L6,7 C5.44771525,7 5,6.55228475 5,6 C5,5.44771525 5.44771525,5 6,5 L19,5 C19,3.8954305 18.1045695,3 17,3 L6,3 C4.34314575,3 3,4.34314575 3,6 L3,19 C3,20.1045695 3.8954305,21 5,21 L19,21 C20.1045695,21 21,20.1045695 21,19 L21,9 C21,7.8954305 20.1045695,7 19,7 Z M19,17 L12,17 C11.4477153,17 11,16.5522847 11,16 L11,12 C11,11.4477153 11.4477153,11 12,11 L19,11 L19,17 Z M13.5,15 L14.5,15 C14.7761424,15 15,14.7761424 15,14.5 L15,13.5 C15,13.2238576 14.7761424,13 14.5,13 L13.5,13 C13.2238576,13 13,13.2238576 13,13.5 L13,14.5 C13,14.7761424 13.2238576,15 13.5,15 Z" id="Icon-color"></path>
            </g>
        </g>
    </g>
</svg>